#!OML:ASF X:\für Bonn\!DataBase\2005_08_10_Bjorn_Final\c3d\bjorn.ASF
:FULLY-SPECIFIED
:DEGREES
61
root 0.677847 11.6093 3.06003 -182.057 -4.99518 179.435
lowerback 24.4171 1.10257 3.50708
upperback 13.0435 -1.03534 -0.166495
thorax 0.831526 -1.63423 -1.95405
lowerneck -16.338 -8.35354 -0.683557
upperneck -5.63821 -11.9983 6.45752
head 1.39182 -6.27903 1.40427
rclavicle 1.98785e-016 5.96354e-016
rhumerus 83.3693 -5.79111 -63.8519
rradius 11.9261
rwrist 36.1843
rhand -17.7321 13.3765
rfingers 7.12502
rthumb 8.52884 -16.4313
lclavicle 1.98785e-016 5.96354e-016
lhumerus 83.9794 -2.32776 43.5233
lradius 16.119
lwrist -34.169
lhand -18.7969 -7.95835
lfingers 7.12502
lthumb 7.5012 21.8886
rfemur -67.3946 -23.7423 12.1221
rtibia 126.237
rfoot -38.4428 21.7351
rtoes -37.5141
lfemur -64.6374 17.2402 -13.6151
ltibia 129.174
lfoot -30.4297 -18.0783
ltoes -32.6747
62
root 0.672618 11.3559 3.07142 -182.53 -5.01896 179.441
lowerback 24.9937 1.11574 3.6175
upperback 13.2382 -1.09557 -0.184252
thorax 0.778335 -1.70312 -2.01703
lowerneck -16.7177 -8.31298 -0.564318
upperneck -5.45857 -11.9823 6.41372
head 1.5046 -6.26529 1.35048
rclavicle -5.96354e-016 5.1684e-015
rhumerus 83.212 -5.81189 -63.4684
rradius 12.1233
rwrist 35.3135
rhand -17.6467 13.4315
rfingers 7.12502
rthumb 8.6113 -16.3729
lclavicle -5.96354e-016 5.1684e-015
lhumerus 83.8604 -2.27804 43.3683
lradius 16.1889
lwrist -33.7199
lhand -18.3466 -8.04243
lfingers 7.12502
lthumb 7.93583 21.7886
rfemur -68.2533 -25.8187 11.5207
rtibia 128.279
rfoot -38.8192 23.078
rtoes -37.697
lfemur -65.3632 18.9767 -13.2007
ltibia 131.172
lfoot -30.7174 -19.1424
ltoes -32.2457
63
root 0.667327 11.1057 3.08288 -183.091 -5.05223 179.431
lowerback 25.6526 1.13435 3.7229
upperback 13.4563 -1.16414 -0.200016
thorax 0.715657 -1.7835 -2.07158
lowerneck -17.1709 -8.25246 -0.393247
upperneck -5.25037 -11.9532 6.29888
head 1.63079 -6.2461 1.26299
rclavicle 5.76476e-015 1.59028e-015
rhumerus 83.0937 -5.84832 -63.2381
rradius 12.3491
rwrist 34.5015
rhand -17.259 13.5151
rfingers 7.12502
rthumb 8.98541 -16.2735
lclavicle 5.76476e-015 1.59028e-015
lhumerus 83.7562 -2.22371 43.3127
lradius 16.2428
lwrist -33.4454
lhand -17.8721 -8.10713
lfingers 7.12502
lthumb 8.39373 21.7061
rfemur -68.9324 -28.2462 10.7737
rtibia 130.271
rfoot -39.4032 24.3737
rtoes -38.2284
lfemur -65.9515 20.9569 -12.7164
ltibia 133.127
lfoot -31.0628 -20.1891
ltoes -32.072
64
root 0.661902 10.8641 3.09249 -183.636 -5.06725 179.458
lowerback 26.2929 1.15898 3.8475
upperback 13.6417 -1.20872 -0.181056
thorax 0.630438 -1.84915 -2.10387
lowerneck -17.4456 -8.1993 -0.311392
upperneck -5.17977 -11.9144 6.23582
head 1.69014 -6.22777 1.21869
rclavicle -4.37326e-015 6.65929e-015
rhumerus 82.9339 -5.86267 -63.0357
rradius 12.5959
rwrist 33.8057
rhand -16.717 13.5522
rfingers 7.12502
rthumb 9.5084 -16.2132
lclavicle -4.37326e-015 6.65929e-015
lhumerus 83.625 -2.20808 43.2944
lradius 16.289
lwrist -33.1571
lhand -17.6822 -8.04635
lfingers 7.12502
lthumb 8.57705 21.7594
rfemur -69.554 -30.9014 9.98976
rtibia 132.179
rfoot -39.9329 25.8731
rtoes -38.4515
lfemur -66.4903 23.2781 -12.138
ltibia 135.017
lfoot -31.5985 -21.0634
ltoes -32.3402
65
root 0.656437 10.6354 3.10085 -184.088 -5.08 179.536
lowerback 26.8184 1.15899 4.02267
upperback 13.8034 -1.25996 -0.173359
thorax 0.57441 -1.9078 -2.17676
lowerneck -17.6649 -8.13298 -0.205004
upperneck -5.12079 -11.8606 6.2115
head 1.73724 -6.20162 1.18662
rclavicle 7.05686e-015 -1.5207e-014
rhumerus 82.7919 -5.87427 -63.0749
rradius 12.8493
rwrist 33.4126
rhand -16.1332 13.5995
rfingers 7.12502
rthumb 10.0717 -16.1394
lclavicle 7.05686e-015 -1.5207e-014
lhumerus 83.555 -2.16197 43.0553
lradius 16.2354
lwrist -32.756
lhand -18.0692 -7.75641
lfingers 7.12502
lthumb 8.2036 22.0643
rfemur -70.1942 -33.7506 9.23968
rtibia 133.984
rfoot -40.5424 27.3657
rtoes -38.7623
lfemur -67.1003 25.8958 -11.5171
ltibia 136.837
lfoot -32.3482 -21.6245
ltoes -33.362
